
Cover 

 
http://yankoimages.net/1v85f84mph5r/Baat.Ek.Raat.Ki.Movie.1962.X264.AAC.RRG.DADA.jpg.html

Screens

 
http://yankoimages.net/k5g4ovchokp6/Baat.Ek.Raat.Ki.Movie.1962.X264.AAC.RRG.DADA.DBBIANS.Com_thumbs.jpg.html
 
http://www.imdb.com/title/tt0055767

General

Format                           : MP4 Video
File size                        : 653 MiB
Duration                         : 2h 25mn
Overall bit rate                 : 629 Kbps

Video
Format                           : AVC
Format/Info                      : Advanced Video Codec
Format profile                   : Main@L3.0
Format settings, CABAC           : Yes
Format settings, ReFrames        : 3 frames
Duration                         : 2h 25mn
Bit rate                         : 492 Kbps
Width                            : 640 pixels
Height                           : 480 pixels
Display aspect ratio             : 4:3
Frame rate mode                  : Constant
Frame rate                       : 25.000 fps
Color space                      : YUV
Chroma subsampling               : 4:2:0
Bit depth                        : 8 bits
Scan type                        : Progressive
Bits/(Pixel*Frame)               : 0.064
Stream size                      : 511 MiB (78%)

Audio
Format                           : AAC
Format/Info                      : Advanced Audio Codec
Format version                   : Version 4
Format profile                   : LC
Format settings, SBR             : No
Duration                         : 2h 25mn
Bit rate                         : 129 Kbps
Channel(s)                       : 2 channels
Channel positions                : Front: L R
Sampling rate                    : 44.1 KHz
Bit depth                        : 16 bits
Stream size                      : 134 MiB (20%)
